<svg width="27" height="27" viewBox="0 0 27 27" fill="none" xmlns="http://www.w3.org/2000/svg">
<g clip-path="url(#clip0_1_2748)">
<path d="M9 7.875C7.50816 7.875 6.07742 8.46763 5.02252 9.52252C3.96763 10.5774 3.375 12.0082 3.375 13.5C3.375 14.9918 3.96763 16.4226 5.02252 17.4775C6.07742 18.5324 7.50816 19.125 9 19.125H18C19.4918 19.125 20.9226 18.5324 21.9775 17.4775C23.0324 16.4226 23.625 14.9918 23.625 13.5C23.625 12.0082 23.0324 10.5774 21.9775 9.52252C20.9226 8.46763 19.4918 7.875 18 7.875H9ZM9 5.625H18C20.0886 5.625 22.0916 6.45469 23.5685 7.93153C25.0453 9.40838 25.875 11.4114 25.875 13.5C25.875 15.5886 25.0453 17.5916 23.5685 19.0685C22.0916 20.5453 20.0886 21.375 18 21.375H9C6.91142 21.375 4.90838 20.5453 3.43153 19.0685C1.95469 17.5916 1.125 15.5886 1.125 13.5C1.125 11.4114 1.95469 9.40838 3.43153 7.93153C4.90838 6.45469 6.91142 5.625 9 5.625ZM9 16.875C8.10489 16.875 7.24645 16.5194 6.61351 15.8865C5.98058 15.2536 5.625 14.3951 5.625 13.5C5.625 12.6049 5.98058 11.7464 6.61351 11.1135C7.24645 10.4806 8.10489 10.125 9 10.125C9.89511 10.125 10.7536 10.4806 11.3865 11.1135C12.0194 11.7464 12.375 12.6049 12.375 13.5C12.375 14.3951 12.0194 15.2536 11.3865 15.8865C10.7536 16.5194 9.89511 16.875 9 16.875Z" fill="#A4A8AB"/>
</g>
<defs>
<clipPath id="clip0_1_2748">
<rect width="27" height="27" fill="white"/>
</clipPath>
</defs>
</svg>
