<svg width="42" height="26" viewBox="0 0 42 26" fill="none" xmlns="http://www.w3.org/2000/svg">
<path d="M15.1934 3.10156H26.3687V23.1818H15.1934V3.10156Z" fill="#B27BFF"/>
<path d="M15.9028 13.1415C15.9028 9.06168 17.8185 5.4429 20.7631 3.10133C18.5991 1.39844 15.8674 0.369629 12.8873 0.369629C5.82703 0.369629 0.115234 6.08142 0.115234 13.1415C0.115234 20.2015 5.82703 25.9134 12.8871 25.9134C15.8672 25.9134 18.5989 24.8846 20.7631 23.1816C17.8185 20.8756 15.9028 17.2214 15.9028 13.1415Z" fill="#9E59FF"/>
<path d="M41.4466 13.1415C41.4466 20.2015 35.7349 25.9134 28.6747 25.9134C25.6947 25.9134 22.963 24.8846 20.7988 23.1816C23.7789 20.8402 25.6593 17.2214 25.6593 13.1415C25.6593 9.06168 23.7434 5.4429 20.7988 3.10133C22.9628 1.39844 25.6947 0.369629 28.6747 0.369629C35.7349 0.369629 41.4468 6.11698 41.4468 13.1415H41.4466Z" fill="#9E59FF"/>
</svg>
