<svg width="42" height="26" viewBox="0 0 42 26" fill="none" xmlns="http://www.w3.org/2000/svg">
<path d="M15.1914 3.10059H26.3668V23.1808H15.1914V3.10059Z" fill="#DFC78A"/>
<path d="M15.9028 13.141C15.9028 9.06119 17.8185 5.44241 20.7631 3.10084C18.5991 1.39795 15.8674 0.369141 12.8873 0.369141C5.82703 0.369141 0.115234 6.08093 0.115234 13.141C0.115234 20.201 5.82703 25.9129 12.8871 25.9129C15.8672 25.9129 18.5989 24.8841 20.7631 23.1811C17.8185 20.8751 15.9028 17.2209 15.9028 13.141Z" fill="#F4DC9F"/>
<path d="M41.4466 13.141C41.4466 20.201 35.7349 25.9129 28.6747 25.9129C25.6947 25.9129 22.963 24.8841 20.7988 23.1811C23.7789 20.8397 25.6593 17.2209 25.6593 13.141C25.6593 9.06119 23.7434 5.44241 20.7988 3.10084C22.9628 1.39795 25.6947 0.369141 28.6747 0.369141C35.7349 0.369141 41.4468 6.11649 41.4468 13.141H41.4466Z" fill="#F4DC9F"/>
</svg>
