<svg width="20" height="21" viewBox="0 0 20 21" fill="none" xmlns="http://www.w3.org/2000/svg">
<g clip-path="url(#clip0_1_3173)">
<path d="M9.16663 9.6665V6.33317L10.8333 6.33317L10.8333 9.6665H14.1666V11.3332H10.8333V14.6665H9.16663V11.3332L5.83329 11.3332L5.83329 9.6665H9.16663ZM9.99996 18.8332C5.39746 18.8332 1.66663 15.1023 1.66663 10.4998C1.66663 5.89734 5.39746 2.1665 9.99996 2.1665C14.6025 2.1665 18.3333 5.89734 18.3333 10.4998C18.3333 15.1023 14.6025 18.8332 9.99996 18.8332ZM9.99996 17.1665C11.7681 17.1665 13.4638 16.4641 14.714 15.2139C15.9642 13.9636 16.6666 12.2679 16.6666 10.4998C16.6666 8.73173 15.9642 7.03604 14.714 5.78579C13.4638 4.53555 11.7681 3.83317 9.99996 3.83317C8.23185 3.83317 6.53616 4.53555 5.28591 5.78579C4.03567 7.03604 3.33329 8.73173 3.33329 10.4998C3.33329 12.2679 4.03567 13.9636 5.28591 15.2139C6.53616 16.4641 8.23185 17.1665 9.99996 17.1665Z" fill="white"/>
</g>
<defs>
<clipPath id="clip0_1_3173">
<rect width="20" height="20" fill="white" transform="translate(0 0.5)"/>
</clipPath>
</defs>
</svg>
