<svg width="24" height="25" viewBox="0 0 24 25" fill="none" xmlns="http://www.w3.org/2000/svg">
<g clip-path="url(#clip0_1_3632)">
<path d="M12 24.5C18.6274 24.5 24 19.1274 24 12.5C24 5.87258 18.6274 0.5 12 0.5C5.37258 0.5 0 5.87258 0 12.5C0 19.1274 5.37258 24.5 12 24.5Z" fill="white"/>
<path d="M15.375 14.9513L18.75 13.2846L17.0626 12.4513V10.7846L13.6875 12.4513L14.875 9.11791H13.6875L12 6.61792L10.3125 9.11791H9.12496L10.3125 12.4513L6.93744 10.7846V12.4513L5.25 13.2846L8.62496 14.9513L7.78124 16.618H11.1563V19.1179H12.8437V16.618H16.2188L15.375 14.9513Z" fill="#D80027"/>
<path fill-rule="evenodd" clip-rule="evenodd" d="M4.5 21.9861V3.25C1.75661 5.44918 0 8.82848 0 12.6181C0 16.4076 1.75661 19.7869 4.5 21.9861Z" fill="#D80027"/>
<path fill-rule="evenodd" clip-rule="evenodd" d="M19.5 21.9861V3.25C22.2434 5.44918 24 8.82848 24 12.6181C24 16.4076 22.2434 19.7869 19.5 21.9861Z" fill="#D80027"/>
</g>
<defs>
<clipPath id="clip0_1_3632">
<rect width="24" height="24" fill="white" transform="translate(0 0.5)"/>
</clipPath>
</defs>
</svg>
