<svg width="24" height="25" viewBox="0 0 24 25" fill="none" xmlns="http://www.w3.org/2000/svg">
<g clip-path="url(#clip0_1_3701)">
<path d="M12 24.5C18.6274 24.5 24 19.1274 24 12.5C24 5.87258 18.6274 0.5 12 0.5C5.37258 0.5 0 5.87258 0 12.5C0 19.1274 5.37258 24.5 12 24.5Z" fill="#F0F0F0"/>
<path d="M24 12.4997C24 19.1271 18.6274 24.4997 12 24.4997C5.37262 24.4997 0 19.1271 0 12.4997C0 5.87235 12 12.4997 12 12.4997C12 12.4997 21.0825 12.4997 24 12.4997Z" fill="#D80027"/>
<path d="M0 12.5C0 5.87262 5.37262 0.5 12 0.5C12 5.06352 12 12.5 12 12.5C12 12.5 4.17389 12.5 0 12.5Z" fill="#0052B4"/>
<path d="M7.14337 4.67383L7.92042 7.0653H10.4349L8.40065 8.54327L9.17765 10.9348L7.14337 9.45672L5.10909 10.9348L5.88609 8.54327L3.85181 7.0653H6.36632L7.14337 4.67383Z" fill="#F0F0F0"/>
</g>
<defs>
<clipPath id="clip0_1_3701">
<rect width="24" height="24" fill="white" transform="translate(0 0.5)"/>
</clipPath>
</defs>
</svg>
