<svg width="24" height="25" viewBox="0 0 24 25" fill="none" xmlns="http://www.w3.org/2000/svg">
<g clip-path="url(#clip0_1_3746)">
<path d="M12 24.5C18.6274 24.5 24 19.1274 24 12.5C24 5.87258 18.6274 0.5 12 0.5C5.37258 0.5 0 5.87258 0 12.5C0 19.1274 5.37258 24.5 12 24.5Z" fill="#D80027"/>
<path d="M11.9145 12.5079C7.54763 10.6625 9.48405 4.97497 13.6607 5.26037C12.8157 5.69409 12.693 6.50528 13.1758 7.25509C13.7159 8.09492 13.1257 9.44724 12.3953 9.7756C11.1944 10.3167 10.955 11.757 11.9145 12.5079Z" fill="white"/>
<path d="M11.6791 8.40068L11.4336 8.78633L11.3446 8.33726L10.9006 8.22371L11.3006 7.99969L11.273 7.54346L11.6085 7.85443L12.033 7.68667L11.8417 8.10198L12.1322 8.4549L11.6791 8.40068Z" fill="#D80027"/>
<path d="M11.9399 12.4598C11.412 12.1887 10.9855 11.624 10.8003 10.9489C10.5886 10.1746 10.7103 9.34189 11.1358 8.66573L11.0438 8.60742C10.6019 9.31018 10.4761 10.1735 10.696 10.9765C10.8924 11.6905 11.3271 12.2664 11.8898 12.5559L11.9399 12.4598Z" fill="#D80027"/>
<path d="M11.9197 12.5085C12.3258 7.78458 18.3325 7.86846 19.3513 11.9285C18.6772 11.2595 17.8691 11.3935 17.3044 12.084C16.6722 12.8574 15.2043 12.7141 14.6652 12.1208C13.7804 11.147 12.336 11.3628 11.9197 12.5085Z" fill="white"/>
<path d="M15.7523 11.0156L15.3093 10.901L15.7083 10.678L15.6807 10.2207L16.0162 10.5317L16.4417 10.3639L16.2504 10.7793L16.5409 11.1322L16.0868 11.078L15.8413 11.4636L15.7523 11.0156Z" fill="#D80027"/>
<path d="M11.9726 12.517C12.0667 11.9308 12.4728 11.3508 13.0579 10.9662C13.729 10.5253 14.5586 10.3842 15.3329 10.5795L15.3595 10.4742C14.5555 10.2717 13.6952 10.419 12.9986 10.8762C12.3797 11.2833 11.9665 11.8756 11.8662 12.4996L11.9726 12.517Z" fill="#D80027"/>
<path d="M11.9197 12.5129C16.5372 11.4388 18.3141 17.1785 14.7675 19.4014C15.1961 18.5533 14.8187 17.826 13.987 17.5028C13.0562 17.1407 12.739 15.6994 13.1359 15.0048C13.7906 13.8622 13.138 12.5559 11.9197 12.5129Z" fill="white"/>
<path d="M14.5249 15.6974L14.4963 15.2412L14.8328 15.5512L15.2584 15.3834L15.0661 15.7997L15.3576 16.1516L14.9034 16.0974L14.6579 16.4841L14.5679 16.035L14.126 15.9204L14.5249 15.6974Z" fill="#D80027"/>
<path d="M11.9277 12.5662C12.5138 12.4752 13.191 12.6818 13.7383 13.1196C14.3654 13.6219 14.7561 14.3666 14.8093 15.1634L14.9177 15.1563C14.8625 14.3287 14.4574 13.5554 13.8068 13.0347C13.2278 12.5723 12.5384 12.3616 11.9124 12.4588L11.9277 12.5662Z" fill="#D80027"/>
<path d="M11.9156 12.5146C14.3635 16.5746 9.4544 20.0383 6.24341 17.352C7.18246 17.4973 7.75735 16.9142 7.8085 16.0232C7.86578 15.0259 9.13729 14.2791 9.92189 14.4428C11.2108 14.7098 12.2521 13.6858 11.9156 12.5146Z" fill="white"/>
<path d="M9.69293 15.9769L10.1185 15.8092L9.92616 16.2245L10.2177 16.5774L9.76352 16.5232L9.51699 16.9088L9.42902 16.4608L8.98608 16.3462L9.38503 16.1222L9.35741 15.666L9.69293 15.9769Z" fill="#D80027"/>
<path d="M11.8673 12.5398C12.1353 13.0697 12.1475 13.7765 11.901 14.4322C11.6177 15.183 11.0295 15.7856 10.2878 16.0822L10.3277 16.1825C11.098 15.8735 11.7077 15.2495 12.0023 14.4701C12.2631 13.7765 12.2498 13.0553 11.9644 12.4907L11.8673 12.5398Z" fill="#D80027"/>
<path d="M11.9124 12.5123C8.80781 16.0946 3.99694 12.4959 5.55896 8.61279C5.71036 9.55082 6.4438 9.91703 7.30614 9.68994C8.27281 9.43523 9.37554 10.4152 9.46248 11.2111C9.60672 12.5194 10.9018 13.1935 11.9124 12.5123Z" fill="white"/>
<path d="M7.93402 11.4677L8.22453 11.8196L7.77035 11.7664L7.52485 12.152L7.43483 11.703L6.99292 11.5884L7.39186 11.3654L7.36322 10.9092L7.69977 11.2191L8.12531 11.0524L7.93402 11.4677Z" fill="#D80027"/>
<path d="M11.8747 12.4725C11.4532 12.8909 10.7842 13.1211 10.0856 13.0893C9.28256 13.0515 8.52865 12.6781 8.01718 12.0654L7.93433 12.1349C8.46625 12.7722 9.24778 13.1589 10.0804 13.1978C10.8211 13.2315 11.5023 12.9963 11.9514 12.5503L11.8747 12.4725Z" fill="#D80027"/>
</g>
<defs>
<clipPath id="clip0_1_3746">
<rect width="24" height="24" fill="white" transform="translate(0 0.5)"/>
</clipPath>
</defs>
</svg>
