<svg width="24" height="25" viewBox="0 0 24 25" fill="none" xmlns="http://www.w3.org/2000/svg">
<g clip-path="url(#clip0_1_3805)">
<path d="M12 24.5C18.6274 24.5 24 19.1274 24 12.5C24 5.87258 18.6274 0.5 12 0.5C5.37258 0.5 0 5.87258 0 12.5C0 19.1274 5.37258 24.5 12 24.5Z" fill="white"/>
<path d="M12 0.5C7.24242 0.5 3.13167 3.26867 1.19067 7.28263H22.8092C20.8682 3.26867 16.7574 0.5 12 0.5Z" fill="#FF9811"/>
<path d="M12 24.4999C16.7574 24.4999 20.8682 21.7313 22.8092 17.7173H1.19067C3.13167 21.7313 7.24242 24.4999 12 24.4999Z" fill="#6DA544"/>
<path d="M11.9999 8.32617C9.69497 8.32617 7.82617 10.195 7.82617 12.4999C7.82617 14.8049 9.69497 16.6736 11.9999 16.6736C14.3049 16.6736 16.1737 14.8049 16.1737 12.4999C16.1737 10.195 14.3049 8.32617 11.9999 8.32617ZM14.3647 15.2827C14.3028 15.2062 14.1908 15.192 14.1118 15.2525C14.0329 15.313 14.0176 15.425 14.0757 15.5047C13.9139 15.6166 13.7432 15.7158 13.564 15.8006C13.524 15.7099 13.4193 15.6671 13.3272 15.7053C13.2354 15.7436 13.1912 15.8479 13.2274 15.9401C13.0434 16.0058 12.8528 16.0573 12.6562 16.0928C12.6413 15.9951 12.5509 15.9265 12.4524 15.9394C12.354 15.9523 12.2848 16.0417 12.2952 16.1398C12.1978 16.1474 12.099 16.1516 11.9996 16.1516C11.9001 16.1516 11.8017 16.1474 11.7039 16.1398C11.7144 16.0417 11.6452 15.9523 11.5467 15.9394C11.4479 15.9265 11.3579 15.9947 11.3429 16.0928C11.1467 16.0573 10.9558 16.0058 10.7718 15.9401C10.8076 15.8479 10.7638 15.7433 10.672 15.7053C10.5802 15.6674 10.4751 15.7102 10.4351 15.8006C10.256 15.7158 10.0852 15.6163 9.92348 15.5047C9.98157 15.425 9.96626 15.313 9.88731 15.2525C9.8087 15.192 9.69671 15.2062 9.63445 15.2827C9.55932 15.2188 9.48663 15.152 9.41707 15.0824C9.3475 15.0128 9.28072 14.9402 9.21673 14.865C9.29324 14.8031 9.3075 14.6911 9.24699 14.6122C9.18647 14.5332 9.07447 14.5179 8.99482 14.576C8.88283 14.4143 8.7837 14.2435 8.69883 14.0644C8.78961 14.0244 8.83239 13.9197 8.79413 13.8275C8.75588 13.7357 8.65153 13.6915 8.55936 13.7277C8.49362 13.5437 8.44215 13.3531 8.40667 13.1566C8.50441 13.1416 8.57292 13.0512 8.56006 12.9528C8.54719 12.8543 8.4578 12.7851 8.35972 12.7955C8.35207 12.6982 8.34789 12.5994 8.34789 12.4999C8.34789 12.4004 8.35207 12.302 8.35972 12.2043C8.4578 12.2147 8.54719 12.1455 8.56006 12.047C8.57292 11.9483 8.50475 11.8582 8.40667 11.8432C8.44215 11.6471 8.49362 11.4561 8.55936 11.2721C8.65153 11.3079 8.75622 11.2641 8.79413 11.1723C8.83205 11.0805 8.78927 10.9754 8.69883 10.9354C8.7837 10.7563 8.88317 10.5855 8.99482 10.4238C9.07447 10.4819 9.18647 10.4666 9.24699 10.3877C9.3075 10.3091 9.29324 10.1971 9.21673 10.1348C9.28072 10.0597 9.3475 9.98697 9.41707 9.91741C9.48663 9.84785 9.55932 9.78107 9.63445 9.71707C9.69636 9.79359 9.80836 9.80785 9.88731 9.74733C9.96626 9.68681 9.98157 9.57482 9.92348 9.49517C10.0852 9.38317 10.256 9.28405 10.4351 9.19918C10.4751 9.28996 10.5798 9.33274 10.672 9.29448C10.7638 9.25622 10.808 9.15188 10.7718 9.05971C10.9558 8.99397 11.1464 8.94249 11.3429 8.90702C11.3579 9.00475 11.4483 9.07327 11.5467 9.0604C11.6452 9.04753 11.7144 8.95815 11.7039 8.86006C11.8013 8.85241 11.9001 8.84824 11.9996 8.84824C12.099 8.84824 12.1975 8.85241 12.2952 8.86006C12.2848 8.95815 12.354 9.04753 12.4524 9.0604C12.5512 9.07327 12.6413 9.0051 12.6562 8.90702C12.8524 8.94249 13.0434 8.99397 13.2274 9.05971C13.1915 9.15188 13.2354 9.25657 13.3272 9.29448C13.419 9.33239 13.524 9.28961 13.564 9.19918C13.7432 9.28405 13.9139 9.38352 14.0757 9.49517C14.0176 9.57482 14.0329 9.68681 14.1118 9.74733C14.1904 9.80785 14.3024 9.79359 14.3647 9.71707C14.4398 9.78107 14.5125 9.84785 14.5821 9.91741C14.6516 9.98697 14.7184 10.0597 14.7824 10.1348C14.7059 10.1967 14.6916 10.3087 14.7522 10.3877C14.8127 10.4666 14.9247 10.4819 15.0043 10.4238C15.1163 10.5855 15.2154 10.7563 15.3003 10.9354C15.2095 10.9754 15.1668 11.0801 15.205 11.1723C15.2433 11.2641 15.3476 11.3083 15.4398 11.2721C15.5055 11.4561 15.557 11.6467 15.5925 11.8432C15.4947 11.8582 15.4262 11.9486 15.4391 12.047C15.452 12.1455 15.5413 12.2147 15.6394 12.2043C15.6471 12.3016 15.6513 12.4004 15.6513 12.4999C15.6513 12.5994 15.6471 12.6978 15.6394 12.7955C15.5413 12.7851 15.452 12.8543 15.4391 12.9528C15.4262 13.0515 15.4944 13.1416 15.5925 13.1566C15.557 13.3527 15.5055 13.5437 15.4398 13.7277C15.3476 13.6919 15.2429 13.7357 15.205 13.8275C15.1671 13.9193 15.2099 14.0244 15.3003 14.0644C15.2154 14.2435 15.116 14.4143 15.0043 14.576C14.9247 14.5179 14.8127 14.5332 14.7522 14.6122C14.6916 14.6908 14.7059 14.8028 14.7824 14.865C14.7184 14.9402 14.6516 15.0128 14.5821 15.0824C14.5125 15.152 14.4398 15.2188 14.3647 15.2827Z" fill="#0052B4"/>
<path d="M12.5412 12.9883C12.5673 12.9595 12.591 12.9292 12.6122 12.8965L13.2021 13.3386L15.1623 14.3257L13.3273 13.1215L12.6494 12.8318C12.6671 12.7974 12.6821 12.7619 12.6943 12.7247L13.3781 12.9988L15.5272 13.445L13.4431 12.757L12.7137 12.6523C12.7217 12.6148 12.7263 12.5762 12.728 12.5372L13.4605 12.6249L15.6517 12.4996L13.4605 12.3744L12.7284 12.4624C12.7263 12.4231 12.7221 12.3845 12.7141 12.3473L13.4435 12.2426L15.5275 11.5546L13.3784 12.0009L12.6946 12.275C12.6824 12.2377 12.6675 12.2019 12.6497 12.1678L13.3276 11.8781L15.1627 10.674L13.2024 11.6611L12.6125 12.1031C12.5913 12.0704 12.5673 12.0398 12.5416 12.0113L13.1214 11.5557L14.5822 9.91788L12.9443 11.3786L12.4887 11.9585C12.4598 11.9324 12.4296 11.9087 12.3969 11.8875L12.839 11.2976L13.8261 9.33738L12.6219 11.1724L12.3322 11.8503C12.2978 11.8325 12.2623 11.8176 12.2251 11.8054L12.4991 11.1216L12.9454 8.97252L12.2574 11.0566L12.1527 11.7859C12.1152 11.7779 12.0766 11.7734 12.0376 11.7717L12.1249 11.0388L11.9997 8.84766L11.8745 11.0388L11.9625 11.771C11.9232 11.7731 11.8846 11.7772 11.8473 11.7852L11.7427 11.0559L11.0547 8.97183L11.5009 11.1209L11.775 11.8047C11.7378 11.8169 11.702 11.8318 11.6679 11.8496L11.3781 11.1717L10.174 9.33668L11.1611 11.2969L11.6032 11.8868C11.5705 11.908 11.5399 11.932 11.5114 11.9578L11.0557 11.378L9.41788 9.91718L10.8787 11.555L11.4585 12.0106C11.4324 12.0395 11.4088 12.0698 11.3875 12.1024L10.7976 11.6604L8.83738 10.6733L10.6724 11.8774L11.3503 12.1671C11.3326 12.2016 11.3176 12.237 11.3055 12.2743L10.6217 12.0002L8.47252 11.5539L10.5566 12.2419L11.286 12.3466C11.278 12.3842 11.2735 12.4228 11.2717 12.4617L10.5389 12.3744L8.34766 12.4996L10.5389 12.6249L11.271 12.5369C11.2731 12.5762 11.2773 12.6148 11.2853 12.652L10.5559 12.7567L8.47183 13.4447L10.621 12.9984L11.3048 12.7243C11.3169 12.7616 11.3319 12.7974 11.3496 12.8315L10.6717 13.1212L8.83668 14.3253L10.797 13.3382L11.3868 12.8962C11.4081 12.9288 11.4321 12.9595 11.4578 12.988L10.878 13.4436L9.41718 15.0815L11.055 13.6206L11.5107 13.0408C11.5395 13.0669 11.5698 13.0906 11.6025 13.1118L11.1604 13.7017L10.1733 15.662L11.3775 13.8269L11.6672 13.149C11.7016 13.1668 11.7371 13.1817 11.7743 13.1939L11.5002 13.8777L11.054 16.0268L11.742 13.9427L11.8466 13.2134C11.8842 13.2214 11.9228 13.2259 11.9618 13.2276L11.8745 13.9605L11.9997 16.1517L12.1249 13.9605L12.0369 13.2283C12.0762 13.2262 12.1148 13.2221 12.152 13.2141L12.2567 13.9434L12.9447 16.0275L12.4985 13.8784L12.2244 13.1946C12.2616 13.1824 12.2974 13.1674 12.3315 13.1497L12.6212 13.8276L13.8254 15.6627L12.8383 13.7024L12.3962 13.1125C12.4289 13.0913 12.4595 13.0673 12.488 13.0415L12.9437 13.6213L14.5815 15.0822L13.1207 13.4443L12.5412 12.9883Z" fill="#0052B4"/>
</g>
<defs>
<clipPath id="clip0_1_3805">
<rect width="24" height="24" fill="white" transform="translate(0 0.5)"/>
</clipPath>
</defs>
</svg>
