<svg width="24" height="25" viewBox="0 0 24 25" fill="none" xmlns="http://www.w3.org/2000/svg">
<g clip-path="url(#clip0_1_3793)">
<path d="M12 24.5C18.6274 24.5 24 19.1274 24 12.5C24 5.87258 18.6274 0.5 12 0.5C5.37258 0.5 0 5.87258 0 12.5C0 19.1274 5.37258 24.5 12 24.5Z" fill="white"/>
<path d="M16.5188 9.89141H13.5064L12.0004 7.28271L10.4943 9.89141H7.48193L8.98821 12.5001L7.48193 15.1088H10.4943L12.0004 17.7174L13.5064 15.1088H16.5188L15.0125 12.5001L16.5188 9.89141ZM13.8507 12.5001L12.9256 14.1026H11.0752L10.15 12.5001L11.0752 10.8975H12.9256L13.8507 12.5001ZM12.0004 9.29492L12.3447 9.89135H11.6561L12.0004 9.29492ZM9.2247 10.8975H9.91339L9.56904 11.4939L9.2247 10.8975ZM9.2247 14.1026L9.56909 13.5062L9.91343 14.1026H9.2247ZM12.0004 15.7052L11.6561 15.1088H12.3447L12.0004 15.7052ZM14.776 14.1026H14.0873L14.4317 13.5062L14.776 14.1026ZM14.0873 10.8975H14.776L14.4317 11.4939L14.0873 10.8975Z" fill="#0052B4"/>
<path d="M19.4698 3.1084H4.53009C3.43495 3.98065 2.49576 5.04012 1.76123 6.23886H22.2387C21.5041 5.04017 20.5649 3.98065 19.4698 3.1084Z" fill="#0052B4"/>
<path d="M4.53009 21.8912H19.4698C20.5649 21.0189 21.5041 19.9594 22.2386 18.7607H1.76123C2.49581 19.9594 3.435 21.0189 4.53009 21.8912Z" fill="#0052B4"/>
</g>
<defs>
<clipPath id="clip0_1_3793">
<rect width="24" height="24" fill="white" transform="translate(0 0.5)"/>
</clipPath>
</defs>
</svg>
