<svg width="24" height="25" viewBox="0 0 24 25" fill="none" xmlns="http://www.w3.org/2000/svg">
<g clip-path="url(#clip0_1_3445)">
<path d="M12 3.50024C10.9 3.50024 10 4.40024 10 5.50024C10 6.60024 10.9 7.50024 12 7.50024C13.1 7.50024 14 6.60024 14 5.50024C14 4.40024 13.1 3.50024 12 3.50024ZM12 17.5002C10.9 17.5002 10 18.4002 10 19.5002C10 20.6002 10.9 21.5002 12 21.5002C13.1 21.5002 14 20.6002 14 19.5002C14 18.4002 13.1 17.5002 12 17.5002ZM12 10.5002C10.9 10.5002 10 11.4002 10 12.5002C10 13.6002 10.9 14.5002 12 14.5002C13.1 14.5002 14 13.6002 14 12.5002C14 11.4002 13.1 10.5002 12 10.5002Z" fill="white"/>
</g>
<defs>
<clipPath id="clip0_1_3445">
<rect width="24" height="24" fill="white" transform="translate(0 0.500244)"/>
</clipPath>
</defs>
</svg>
