<svg width="24" height="24" viewBox="0 0 24 24" fill="none" xmlns="http://www.w3.org/2000/svg">
<g clip-path="url(#clip0_1_3577)">
<path d="M12 22.0002C6.477 22.0002 2 17.5232 2 12.0002C2 6.47724 6.477 2.00024 12 2.00024C17.523 2.00024 22 6.47724 22 12.0002C22 17.5232 17.523 22.0002 12 22.0002ZM12 20.0002C14.1217 20.0002 16.1566 19.1574 17.6569 17.6571C19.1571 16.1568 20 14.122 20 12.0002C20 9.87851 19.1571 7.84368 17.6569 6.34339C16.1566 4.8431 14.1217 4.00024 12 4.00024C9.87827 4.00024 7.84344 4.8431 6.34315 6.34339C4.84285 7.84368 4 9.87851 4 12.0002C4 14.122 4.84285 16.1568 6.34315 17.6571C7.84344 19.1574 9.87827 20.0002 12 20.0002ZM11 15.0002H13V17.0002H11V15.0002ZM11 7.00024H13V13.0002H11V7.00024Z" fill="white"/>
</g>
<defs>
<clipPath id="clip0_1_3577">
<rect width="24" height="24" fill="white" transform="translate(0 0.000244141)"/>
</clipPath>
</defs>
</svg>
