<svg width="24" height="25" viewBox="0 0 24 25" fill="none" xmlns="http://www.w3.org/2000/svg">
<g clip-path="url(#clip0_1_3665)">
<path d="M12 24.5C18.6274 24.5 24 19.1274 24 12.5C24 5.87258 18.6274 0.5 12 0.5C5.37258 0.5 0 5.87258 0 12.5C0 19.1274 5.37258 24.5 12 24.5Z" fill="#FF0000"/>
<path fill-rule="evenodd" clip-rule="evenodd" d="M10 14.5H6.33333C6.14924 14.5 6 14.3508 6 14.1667V10.8333C6 10.6492 6.14924 10.5 6.33333 10.5H10V6.83333C10 6.64924 10.1492 6.5 10.3333 6.5H13.6667C13.8508 6.5 14 6.64924 14 6.83333V10.5H17.6667C17.8508 10.5 18 10.6492 18 10.8333V14.1667C18 14.3508 17.8508 14.5 17.6667 14.5H14V18.1667C14 18.3508 13.8508 18.5 13.6667 18.5H10.3333C10.1492 18.5 10 18.3508 10 18.1667V14.5Z" fill="white"/>
</g>
<defs>
<clipPath id="clip0_1_3665">
<rect width="24" height="24" fill="white" transform="translate(0 0.5)"/>
</clipPath>
</defs>
</svg>
