<svg width="20" height="18" viewBox="0 0 20 18" fill="none" xmlns="http://www.w3.org/2000/svg">
<path d="M7.82898 2L5.82898 4H2.00098V16H18.001V4H14.173L12.173 2H7.82898ZM7.00098 0H13.001L15.001 2H19.001C19.2662 2 19.5205 2.10536 19.7081 2.29289C19.8956 2.48043 20.001 2.73478 20.001 3V17C20.001 17.2652 19.8956 17.5196 19.7081 17.7071C19.5205 17.8946 19.2662 18 19.001 18H1.00098C0.73576 18 0.481406 17.8946 0.29387 17.7071C0.106333 17.5196 0.000976563 17.2652 0.000976562 17V3C0.000976562 2.73478 0.106333 2.48043 0.29387 2.29289C0.481406 2.10536 0.73576 2 1.00098 2H5.00098L7.00098 0ZM10.001 15C8.54229 15 7.14334 14.4205 6.11189 13.3891C5.08044 12.3576 4.50098 10.9587 4.50098 9.5C4.50098 8.04131 5.08044 6.64236 6.11189 5.61091C7.14334 4.57946 8.54229 4 10.001 4C11.4597 4 12.8586 4.57946 13.8901 5.61091C14.9215 6.64236 15.501 8.04131 15.501 9.5C15.501 10.9587 14.9215 12.3576 13.8901 13.3891C12.8586 14.4205 11.4597 15 10.001 15ZM10.001 13C10.9292 13 11.8195 12.6313 12.4759 11.9749C13.1322 11.3185 13.501 10.4283 13.501 9.5C13.501 8.57174 13.1322 7.6815 12.4759 7.02513C11.8195 6.36875 10.9292 6 10.001 6C9.07272 6 8.18248 6.36875 7.5261 7.02513C6.86973 7.6815 6.50098 8.57174 6.50098 9.5C6.50098 10.4283 6.86973 11.3185 7.5261 11.9749C8.18248 12.6313 9.07272 13 10.001 13Z" fill="white"/>
</svg>
