<svg width="16" height="16" viewBox="0 0 16 16" fill="none" xmlns="http://www.w3.org/2000/svg">
<g id="Star-Icon" clip-path="url(#clip0_880_8435)">
<path id="Vector" d="M7.99978 12.1735L5.18948 13.7466C4.44489 14.1634 3.55394 13.5161 3.72021 12.6791L4.34778 9.52016L1.98292 7.33341C1.35639 6.75407 1.69666 5.70666 2.54406 5.60616L5.74245 5.22683L7.09174 2.3019C7.44917 1.52708 8.55039 1.52708 8.90782 2.3019L10.2571 5.22683L13.4555 5.60616C14.3029 5.70666 14.6432 6.75407 14.0166 7.33341L11.6518 9.52016L12.2794 12.6791C12.4456 13.5161 11.5547 14.1634 10.8101 13.7466L7.99978 12.1735ZM7.99978 10.6455L10.8311 12.2302L10.1984 9.04816L12.5804 6.84483L9.35845 6.46283L7.99978 3.51683L6.64111 6.4635L3.41911 6.84483L5.80111 9.04816L5.16845 12.2302L7.99978 10.6455Z" fill="#A4A8AB"/>
</g>
<defs>
<clipPath id="clip0_880_8435">
<rect width="16" height="16" fill="white"/>
</clipPath>
</defs>
</svg>
