<svg width="16" height="16" viewBox="0 0 16 16" fill="none" xmlns="http://www.w3.org/2000/svg">
<g id="Frame" clip-path="url(#clip0_1_6380)">
<path id="Vector" d="M7.99929 12.173L5.18899 13.7461C4.4444 14.1629 3.55345 13.5156 3.71972 12.6787L4.34729 9.51967L1.98243 7.33292C1.3559 6.75358 1.69618 5.70617 2.54357 5.60567L5.74196 5.22634L7.09125 2.30141C7.44868 1.52659 8.5499 1.52659 8.90733 2.30141L10.2566 5.22634L13.455 5.60567C14.3024 5.70617 14.6427 6.75358 14.0162 7.33292L11.6513 9.51967L12.2789 12.6787C12.4451 13.5156 11.5542 14.1629 10.8096 13.7461L7.99929 12.173ZM7.99929 10.645L10.8306 12.2297L10.198 9.04767L12.58 6.84434L9.35796 6.46234L7.99929 3.51634L6.64062 6.46301L3.41863 6.84434L5.80062 9.04767L5.16796 12.2297L7.99929 10.645Z" fill="#A4A8AB"/>
</g>
<defs>
<clipPath id="clip0_1_6380">
<rect width="16" height="16" fill="white"/>
</clipPath>
</defs>
</svg>
