<svg width="42" height="40" viewBox="0 0 42 40" fill="none" xmlns="http://www.w3.org/2000/svg">
<g id="Group 8341">
<path id="Path 3763" d="M41.8147 18.9854C41.9388 18.0513 42.0007 17.1099 42 16.1676C42 15.9649 42 15.7659 41.9905 15.568C41.9821 15.2335 41.9684 14.9541 41.9482 14.6897C41.9 13.9646 41.8127 13.2427 41.6866 12.5272C41.6669 12.4073 41.6473 12.2952 41.627 12.1837C41.5919 11.9858 41.552 11.7874 41.5079 11.5949C41.4829 11.4786 41.4572 11.3623 41.4286 11.2526C41.3911 11.0889 41.3512 10.9253 41.3095 10.7688C40.2326 6.66513 37.9516 2.98334 34.764 0.20382L34.5305 0L34.3875 0.275761C34.1931 0.65162 34.0273 1.04186 33.8918 1.44306C33.6021 2.30662 33.4552 3.21215 33.4569 4.12358C33.4569 4.58813 33.4946 5.05189 33.5695 5.51029V5.59361L33.588 5.6122C33.6614 6.02469 33.766 6.43098 33.9008 6.82747C32.1843 6.54872 30.425 6.7367 28.805 7.37201C27.185 8.00731 25.7631 9.06683 24.6868 10.4408L24.4091 10.7934L24.8542 10.8383C24.8935 10.8425 28.8639 11.2418 32.4208 11.8006C33.9085 12.0229 35.3754 12.3686 36.8065 12.8342C36.8114 12.8345 36.8164 12.8345 36.8213 12.8342C36.8255 12.8342 36.8285 12.8378 36.8327 12.839C37.0384 12.8921 37.2177 13.0191 37.337 13.1959C37.4563 13.3728 37.5073 13.5874 37.4805 13.7994C37.4536 14.0114 37.3507 14.2063 37.1912 14.3474C37.0316 14.4884 36.8264 14.5661 36.614 14.5656H0.28837C0.269299 14.567 0.250484 14.5708 0.232369 14.577C0.198547 14.5809 0.16693 14.5958 0.142403 14.6196C0.137041 14.6238 0.130478 14.6262 0.125712 14.631C0.110993 14.6457 0.0982025 14.6622 0.087602 14.6801C0.0804979 14.689 0.0740958 14.6984 0.0685106 14.7083C0.062225 14.7246 0.0576629 14.7415 0.0548376 14.7587C0.0503124 14.7707 0.0469042 14.7831 0.0446919 14.7958C0.0154979 15.2449 0 15.7053 0 16.1634C0.0104967 17.3294 0.106479 18.493 0.28717 19.6449L0.321753 19.8493H12.2108C14.2001 19.8451 16.1471 20.4272 17.8113 21.5238C21.3199 24.0418 22.9489 30.1708 22.9655 30.235C23.0114 30.4029 24.1148 34.3664 26.5743 36.418C27.3685 37.1748 28.2549 37.8271 29.2124 38.3593C32.052 39.9365 35.3723 40.3971 38.5301 39.6519C38.5372 39.6519 38.542 39.6453 38.5492 39.6429C38.5639 39.6377 38.578 39.631 38.5914 39.6231C38.6071 39.6146 38.6217 39.6044 38.6349 39.5925C38.6403 39.5877 38.6474 39.5859 38.6522 39.5805C38.657 39.5751 38.6594 39.5667 38.6641 39.5607C38.6836 39.5354 38.698 39.5065 38.7064 39.4756C38.7105 39.4605 38.7131 39.445 38.7142 39.4294C38.7159 39.4131 38.7159 39.3966 38.7142 39.3803C38.7142 39.3719 38.7142 39.3641 38.7142 39.3557C38.7142 39.3473 38.7076 39.3431 38.7046 39.3359C38.6992 39.32 38.6923 39.3048 38.6838 39.2903C38.676 39.277 38.667 39.2643 38.657 39.2526C38.6516 39.2466 38.6493 39.2388 38.6433 39.2334C36.6845 37.3808 35.1818 35.0942 34.2547 32.5552C38.4074 29.172 41.1131 24.3155 41.8147 18.9854Z" fill="#0CAF60"/>
<g id="Group 20958">
<g id="Group 8336">
<g id="Group 8335">
<path id="Path 3764" d="M24.9739 36.917C24.9769 36.9004 24.9781 36.8835 24.9775 36.8667C24.9781 36.8577 24.9781 36.8487 24.9775 36.8397C24.9775 36.8337 24.9727 36.8289 24.9715 36.8229C24.9679 36.8068 24.9625 36.7911 24.9554 36.7761C24.9494 36.761 24.9418 36.7465 24.9328 36.733C24.9292 36.7282 24.9287 36.7222 24.9245 36.7174C24.4136 36.0819 23.9576 35.4038 23.5613 34.6904C23.5496 34.6719 23.5354 34.6551 23.519 34.6406C23.5147 34.6352 23.5101 34.63 23.5053 34.625C23.4848 34.6082 23.4616 34.5948 23.4368 34.5854C23.432 34.5854 23.4284 34.5806 23.4237 34.5788C23.4031 34.5728 23.3819 34.5696 23.3605 34.5693C23.3509 34.5672 23.3411 34.5658 23.3313 34.565C23.1883 34.5752 22.5437 34.583 22.1171 34.5884C21.9336 34.5884 21.7852 34.5926 21.7269 34.5938H21.5928C20.9767 34.6052 20.3494 34.5866 19.7136 34.5339C17.127 34.3223 14.6157 33.5542 12.3496 32.2814C8.77071 30.2718 5.95893 27.1198 4.35821 23.3232C4.0774 22.6504 3.83687 21.9613 3.6379 21.2596C3.6379 21.2548 3.63253 21.2513 3.63074 21.2465C3.62463 21.2305 3.61684 21.2152 3.6075 21.2009C3.58278 21.1627 3.54927 21.131 3.50979 21.1085C3.49519 21.1021 3.48004 21.0971 3.46452 21.0936C3.44936 21.0889 3.4338 21.0857 3.41804 21.084C3.41268 21.084 3.40791 21.084 3.40255 21.084H0.88235C0.863 21.0896 0.842899 21.092 0.822785 21.0912C0.817059 21.0936 0.811479 21.0964 0.806094 21.0996C0.790466 21.1051 0.775476 21.1124 0.761402 21.1212C0.748333 21.1284 0.735959 21.1368 0.724456 21.1463C0.712751 21.157 0.702182 21.1688 0.692891 21.1817C0.683198 21.1934 0.674603 21.2061 0.667254 21.2194C0.660777 21.2333 0.655591 21.2478 0.651763 21.2626C0.646851 21.2784 0.64366 21.2947 0.642236 21.3112C0.642236 21.3178 0.638672 21.3232 0.638672 21.3298C0.64006 21.3397 0.642056 21.3495 0.644636 21.3592C0.64406 21.3693 0.64406 21.3796 0.644636 21.3898C1.04665 22.9855 1.6348 24.5278 2.39686 25.9846C4.43254 29.8629 7.60748 33.015 11.4887 35.0111C11.5636 36.2981 12.1019 37.5136 13.003 38.4301C13.9041 39.3465 15.1062 39.9012 16.3843 39.9902H16.3915H16.401H16.4159C16.4463 39.9901 16.4765 39.9842 16.5047 39.9728C16.5149 39.9676 16.5246 39.9616 16.5339 39.9548C16.55 39.947 16.5652 39.9373 16.5792 39.9261C16.5978 39.9032 16.6155 39.8796 16.6322 39.8553C16.6372 39.8429 16.6412 39.83 16.6441 39.817C16.6498 39.8034 16.6542 39.7894 16.6572 39.775C16.7816 38.7943 17.1295 37.8558 17.6736 37.0327C18.5018 37.168 19.3375 37.2513 20.176 37.2822C20.4328 37.2941 20.7003 37.3001 20.9934 37.3001C21.053 37.3001 21.1126 37.3001 21.1591 37.3001C22.1123 37.2923 23.9205 37.2288 24.7642 37.1161C24.7707 37.1161 24.7761 37.1113 24.7827 37.1095C24.8014 37.1056 24.8197 37.0993 24.8369 37.0909C24.848 37.0857 24.8588 37.0797 24.8691 37.0729C24.8744 37.0687 24.881 37.0675 24.8863 37.0633C24.8928 37.0565 24.8987 37.0493 24.9042 37.0417C24.9161 37.0301 24.9267 37.0172 24.9358 37.0034C24.9439 36.9902 24.9506 36.9764 24.9561 36.962C24.9635 36.9477 24.9695 36.9326 24.9739 36.917Z" fill="white"/>
</g>
</g>
<g id="Group 8338">
<g id="Group 8337">
<path id="Path 3765" d="M8.28626 21.2376C8.26981 21.2101 8.25254 21.1831 8.23444 21.1566C8.22415 21.148 8.21319 21.1402 8.20168 21.1333C8.18814 21.1216 8.17333 21.1116 8.15757 21.1033C8.14799 21.1003 8.13827 21.0979 8.1284 21.0961C8.10783 21.089 8.08634 21.0847 8.06462 21.0835H5.28467L5.37998 21.4006C5.44671 21.6219 5.51939 21.8437 5.59566 22.0602C6.97551 26.0017 9.75556 29.2903 13.4006 31.2929C15.6497 32.537 19.293 33.3733 22.4656 33.3733H22.5508C22.6156 33.3733 22.6777 33.3474 22.7235 33.3013C22.7693 33.2552 22.7951 33.1927 22.7951 33.1275V33.0262L22.7587 32.9884C22.5062 32.3597 22.2912 31.7165 22.1147 31.0621C22.1147 31.0543 22.1087 31.0477 22.1069 31.0399C22.1039 31.0274 22.0997 31.0151 22.0944 31.0034C22.0823 30.9763 22.0657 30.9513 22.0456 30.9296C22.0331 30.9172 22.0193 30.9061 22.0045 30.8967C21.9945 30.8894 21.9839 30.8829 21.9729 30.8775C21.9553 30.8701 21.9369 30.8648 21.9181 30.8619C21.9095 30.8587 21.9007 30.8561 21.8918 30.8541C21.7292 30.8421 21.5665 30.8253 21.4045 30.8061C19.5745 30.6278 17.775 30.2125 16.0507 29.5705C12.4833 27.9207 9.69874 24.9321 8.29223 21.2436C8.29223 21.2436 8.28626 21.2388 8.28626 21.2376Z" fill="white"/>
</g>
</g>
<g id="Group 8340">
<g id="Group 8339">
<path id="Path 3766" d="M10.0908 21.3846C10.0933 21.4006 10.0975 21.4162 10.1033 21.4313C10.1033 21.4313 10.1033 21.4361 10.1033 21.4385C11.1365 23.3844 12.6109 25.0579 14.407 26.3231C16.2031 27.5883 18.2704 28.4096 20.441 28.7205C20.4592 28.7224 20.4775 28.7234 20.4958 28.7235C20.5655 28.7234 20.6344 28.7076 20.6973 28.6772C20.7602 28.6468 20.8156 28.6026 20.8592 28.5478C20.9097 28.4852 20.9437 28.4107 20.9577 28.3313C20.9718 28.2519 20.9656 28.1702 20.9396 28.0939L20.2944 26.1832C20.2565 26.0713 20.1907 25.971 20.1033 25.892C20.0159 25.8129 19.9097 25.7578 19.7951 25.7318C17.0932 25.0981 14.2643 23.2311 12.9155 21.1927C12.9113 21.1861 12.9041 21.1825 12.8994 21.1765C12.8887 21.1634 12.8767 21.1513 12.8636 21.1406C12.8518 21.1308 12.839 21.1221 12.8255 21.1148C12.797 21.0996 12.7658 21.0903 12.7337 21.0872C12.7267 21.0854 12.7195 21.084 12.7123 21.083H10.3238H10.3172C10.3002 21.0847 10.2834 21.0881 10.2671 21.0932C10.2519 21.0961 10.237 21.1003 10.2225 21.1058H10.2153C10.2057 21.1123 10.1965 21.1195 10.1879 21.1274C10.1729 21.1368 10.1589 21.1479 10.1462 21.1603C10.1365 21.1721 10.128 21.1848 10.1206 21.1981C10.1115 21.2111 10.1037 21.2249 10.0974 21.2395C10.092 21.2562 10.0886 21.2735 10.0872 21.291C10.0838 21.3024 10.0814 21.314 10.0801 21.3258C10.0801 21.3258 10.0801 21.33 10.0801 21.333C10.0818 21.3505 10.0854 21.3678 10.0908 21.3846Z" fill="white"/>
</g>
</g>
</g>
</g>
</svg>
