<svg width="24" height="24" viewBox="0 0 24 24" fill="none" xmlns="http://www.w3.org/2000/svg">
<g clip-path="url(#clip0_630_10069)">
<path d="M7.10495 8.78983C7.27841 9.42466 7.65575 9.98488 8.17885 10.3842C8.70196 10.7835 9.34184 10.9999 9.99995 10.9998H13.9999C15.178 10.9999 16.3182 11.4159 17.2195 12.1743C18.1209 12.9328 18.7255 13.9851 18.9269 15.1458C19.6056 15.3673 20.1832 15.8234 20.5558 16.4323C20.9285 17.0412 21.0719 17.7631 20.9602 18.4682C20.8486 19.1733 20.4892 19.8155 19.9466 20.2795C19.4041 20.7435 18.7139 20.9989 17.9999 20.9998C17.3015 21.0004 16.6247 20.7572 16.0863 20.3122C15.548 19.8672 15.1817 19.2483 15.0508 18.5622C14.9199 17.8761 15.0324 17.1659 15.3691 16.5539C15.7057 15.9419 16.2454 15.4666 16.8949 15.2098C16.7215 14.575 16.3441 14.0148 15.821 13.6154C15.2979 13.2161 14.6581 12.9998 13.9999 12.9998H9.99995C8.91784 13.0014 7.86468 12.6504 6.99995 11.9998V15.1698C7.66744 15.4057 8.23004 15.87 8.58831 16.4806C8.94657 17.0912 9.07743 17.8089 8.95776 18.5066C8.83808 19.2044 8.47558 19.8374 7.93432 20.2937C7.39306 20.75 6.7079 21.0003 5.99995 21.0003C5.29199 21.0003 4.60683 20.75 4.06557 20.2937C3.52431 19.8374 3.16181 19.2044 3.04213 18.5066C2.92246 17.8089 3.05332 17.0912 3.41159 16.4806C3.76985 15.87 4.33245 15.4057 4.99995 15.1698V8.82983C4.33692 8.59574 3.77715 8.13627 3.4183 7.53159C3.05945 6.92692 2.92432 6.21544 3.03648 5.52131C3.14864 4.82718 3.50098 4.19447 4.032 3.73359C4.56303 3.27271 5.23903 3.01292 5.94204 2.99957C6.64505 2.98621 7.33043 3.22012 7.87858 3.6605C8.42673 4.10087 8.80285 4.71974 8.9413 5.40911C9.07975 6.09848 8.97175 6.81457 8.63613 7.43244C8.30051 8.05031 7.7586 8.53072 7.10495 8.78983ZM5.99995 6.99983C6.26516 6.99983 6.51952 6.89447 6.70705 6.70693C6.89459 6.5194 6.99995 6.26504 6.99995 5.99983C6.99995 5.73461 6.89459 5.48026 6.70705 5.29272C6.51952 5.10518 6.26516 4.99983 5.99995 4.99983C5.73473 4.99983 5.48038 5.10518 5.29284 5.29272C5.1053 5.48026 4.99995 5.73461 4.99995 5.99983C4.99995 6.26504 5.1053 6.5194 5.29284 6.70693C5.48038 6.89447 5.73473 6.99983 5.99995 6.99983ZM5.99995 18.9998C6.26516 18.9998 6.51952 18.8945 6.70705 18.7069C6.89459 18.5194 6.99995 18.265 6.99995 17.9998C6.99995 17.7346 6.89459 17.4803 6.70705 17.2927C6.51952 17.1052 6.26516 16.9998 5.99995 16.9998C5.73473 16.9998 5.48038 17.1052 5.29284 17.2927C5.1053 17.4803 4.99995 17.7346 4.99995 17.9998C4.99995 18.265 5.1053 18.5194 5.29284 18.7069C5.48038 18.8945 5.73473 18.9998 5.99995 18.9998ZM17.9999 18.9998C18.2652 18.9998 18.5195 18.8945 18.7071 18.7069C18.8946 18.5194 18.9999 18.265 18.9999 17.9998C18.9999 17.7346 18.8946 17.4803 18.7071 17.2927C18.5195 17.1052 18.2652 16.9998 17.9999 16.9998C17.7347 16.9998 17.4804 17.1052 17.2928 17.2927C17.1053 17.4803 16.9999 17.7346 16.9999 17.9998C16.9999 18.265 17.1053 18.5194 17.2928 18.7069C17.4804 18.8945 17.7347 18.9998 17.9999 18.9998Z" fill="white"/>
</g>
<defs>
<clipPath id="clip0_630_10069">
<rect width="24" height="24" fill="white"/>
</clipPath>
</defs>
</svg>
