<svg width="24" height="25" viewBox="0 0 24 25" fill="none" xmlns="http://www.w3.org/2000/svg">
<g clip-path="url(#clip0_1_2959)">
<path d="M24 12.5C24 19.1274 18.6274 24.5 12 24.5C5.37262 24.5 0 19.1274 0 12.5C0 12.5028 12 0.501359 12 0.5C18.6274 0.5 24 5.87262 24 12.5Z" fill="#0052B4"/>
<path d="M11.9678 12.4999H11.9999C11.9999 12.489 11.9999 12.4786 11.9999 12.4678C11.9892 12.4785 11.9785 12.4892 11.9678 12.4999Z" fill="white"/>
<path d="M12 6.76135C12 4.64987 12 3.26626 12 0.500488H11.998C5.3715 0.501566 0 5.87368 0 12.5004H6.26086V8.97488L9.78642 12.5004H11.9679C11.9787 12.4897 11.9894 12.479 12 12.4683C12 11.6598 12 10.9385 12 10.287L8.47444 6.76135H12Z" fill="white"/>
<path d="M6.071 2.06543C4.19417 3.13413 2.63389 4.69441 1.56519 6.57124V12.5002H4.69564V5.19593V5.19588H12C12 4.20855 12 3.26796 12 2.06543H6.071Z" fill="#D80027"/>
<path d="M12.0001 11.0242L7.73666 6.76076H6.26099C6.26099 6.76072 6.26099 6.76076 6.26099 6.76076L12 12.4998H12.0001C12.0001 12.4998 12.0001 11.4824 12.0001 11.0242Z" fill="#D80027"/>
<path d="M7.23729 14.5869L7.89588 15.964L9.38309 15.6202L8.71709 16.9938L9.91305 17.9422L8.42398 18.2778L8.42815 19.8043L7.23729 18.8493L6.04648 19.8043L6.05065 18.2778L4.56152 17.9422L5.75754 16.9938L5.09145 15.6202L6.57874 15.964L7.23729 14.5869Z" fill="white"/>
<path d="M17.9665 17.1958L18.2958 17.8843L19.0394 17.7125L18.7064 18.3992L19.3044 18.8734L18.5599 19.0413L18.5619 19.8045L17.9665 19.327L17.3711 19.8045L17.3732 19.0413L16.6287 18.8734L17.2266 18.3992L16.8936 17.7125L17.6372 17.8843L17.9665 17.1958Z" fill="white"/>
<path d="M14.9031 9.8916L15.2323 10.5802L15.976 10.4083L15.643 11.095L16.241 11.5692L15.4964 11.7371L15.4985 12.5003L14.9031 12.0228L14.3077 12.5003L14.3097 11.7371L13.5652 11.5692L14.1632 11.095L13.8302 10.4083L14.5738 10.5802L14.9031 9.8916Z" fill="white"/>
<path d="M17.9665 5.71729L18.2958 6.40588L19.0394 6.23398L18.7064 6.92075L19.3044 7.39494L18.5599 7.5628L18.5619 8.32601L17.9665 7.84851L17.3711 8.32601L17.3732 7.5628L16.6287 7.39494L17.2266 6.92075L16.8936 6.23398L17.6372 6.40588L17.9665 5.71729Z" fill="white"/>
<path d="M20.6424 8.84766L20.9716 9.53626L21.7152 9.36432L21.3822 10.0511L21.9802 10.5253L21.2356 10.6932L21.2377 11.4563L20.6424 10.9789L20.0469 11.4563L20.049 10.6932L19.3044 10.5253L19.9024 10.0511L19.5694 9.36432L20.313 9.53626L20.6424 8.84766Z" fill="white"/>
<path d="M18.729 12.5L18.988 13.2972H19.8262L19.1481 13.7899L19.4072 14.587L18.729 14.0943L18.0509 14.587L18.3099 13.7899L17.6318 13.2972H18.47L18.729 12.5Z" fill="white"/>
</g>
<defs>
<clipPath id="clip0_1_2959">
<rect width="24" height="24" fill="white" transform="translate(0 0.5)"/>
</clipPath>
</defs>
</svg>
