<svg width="24" height="25" viewBox="0 0 24 25" fill="none" xmlns="http://www.w3.org/2000/svg">
<g clip-path="url(#clip0_1_2946)">
<path d="M12 24.5C18.6274 24.5 24 19.1274 24 12.5C24 5.87258 18.6274 0.5 12 0.5C5.37258 0.5 0 5.87258 0 12.5C0 19.1274 5.37258 24.5 12 24.5Z" fill="#05AB41"/>
<path d="M12.0002 5.1958L21.9132 12.5001L12.0002 19.8045L2.08716 12.5001L12.0002 5.1958Z" fill="#FFDA44"/>
<path d="M12.0001 16.674C14.3052 16.674 16.174 14.8053 16.174 12.5001C16.174 10.1949 14.3052 8.32617 12.0001 8.32617C9.69489 8.32617 7.82617 10.1949 7.82617 12.5001C7.82617 14.8053 9.69489 16.674 12.0001 16.674Z" fill="white"/>
<path d="M9.91324 12.2393C9.18743 12.2393 8.48698 12.3497 7.82764 12.5546C7.85684 14.8346 9.71328 16.6741 12.0002 16.6741C13.4143 16.6741 14.6633 15.9702 15.4183 14.8944C14.1266 13.2773 12.139 12.2393 9.91324 12.2393Z" fill="#0052B4"/>
<path d="M16.0969 13.2998C16.1471 13.0409 16.1743 12.7737 16.1743 12.5001C16.1743 10.1948 14.3056 8.32617 12.0004 8.32617C10.2804 8.32617 8.80379 9.36684 8.16479 10.8527C8.72964 10.7357 9.31446 10.674 9.91348 10.674C12.3377 10.674 14.5308 11.6817 16.0969 13.2998Z" fill="#0052B4"/>
</g>
<defs>
<clipPath id="clip0_1_2946">
<rect width="24" height="24" fill="white" transform="translate(0 0.5)"/>
</clipPath>
</defs>
</svg>
