<svg width="24" height="25" viewBox="0 0 24 25" fill="none" xmlns="http://www.w3.org/2000/svg">
<g clip-path="url(#clip0_1_2989)">
<path d="M12 24.5C18.6274 24.5 24 19.1274 24 12.5C24 5.87258 18.6274 0.5 12 0.5C5.37258 0.5 0 5.87258 0 12.5C0 19.1274 5.37258 24.5 12 24.5Z" fill="#D80027"/>
<path d="M6.56719 7.80322L7.60312 10.9907H10.9547L8.24531 12.9641L9.28125 16.1516L6.56719 14.1829L3.85313 16.1516L4.89375 12.9641L2.17969 10.9907H5.53125L6.56719 7.80322Z" fill="#FFDA44"/>
<path d="M14.2267 19.0858L13.4345 18.1108L12.2626 18.5655L12.9423 17.5108L12.1501 16.5311L13.3642 16.8545L14.0486 15.7998L14.1142 17.0561L15.333 17.3795L14.1564 17.8295L14.2267 19.0858Z" fill="#FFDA44"/>
<path d="M15.8017 16.2264L16.1767 15.0264L15.1501 14.2998L16.4064 14.2811L16.7767 13.0811L17.1845 14.2717L18.4408 14.2576L17.433 15.0076L17.8361 16.1983L16.8095 15.4717L15.8017 16.2264Z" fill="#FFDA44"/>
<path d="M17.9249 9.30772L17.3717 10.4374L18.2717 11.3139L17.0295 11.1358L16.4764 12.2608L16.2608 11.0233L15.0139 10.8452L16.1295 10.2593L15.9139 9.01709L16.8139 9.89365L17.9249 9.30772Z" fill="#FFDA44"/>
<path d="M14.2597 5.88574L14.1659 7.13731L15.3331 7.61075L14.1097 7.91074L14.0206 9.16699L13.3597 8.09824L12.1362 8.39824L12.9472 7.43731L12.2815 6.37324L13.4487 6.84668L14.2597 5.88574Z" fill="#FFDA44"/>
</g>
<defs>
<clipPath id="clip0_1_2989">
<rect width="24" height="24" fill="white" transform="translate(0 0.5)"/>
</clipPath>
</defs>
</svg>
