<svg width="20" height="21" viewBox="0 0 20 21" fill="none" xmlns="http://www.w3.org/2000/svg">
<path d="M9.1665 2.1665L7.49984 2.1665C3.33317 2.1665 1.6665 3.83317 1.6665 7.99984L1.6665 12.9998C1.6665 17.1665 3.33317 18.8332 7.49984 18.8332H12.4998C16.6665 18.8332 18.3332 17.1665 18.3332 12.9998V11.3332" stroke="white" stroke-width="1.5" stroke-linecap="round" stroke-linejoin="round"/>
<path d="M13.3666 3.01688L6.7999 9.58354C6.5499 9.83354 6.2999 10.3252 6.2499 10.6835L5.89157 13.1919C5.75823 14.1002 6.3999 14.7335 7.30823 14.6085L9.81657 14.2502C10.1666 14.2002 10.6582 13.9502 10.9166 13.7002L17.4832 7.13354C18.6166 6.00021 19.1499 4.68354 17.4832 3.01688C15.8166 1.35021 14.4999 1.88354 13.3666 3.01688Z" stroke="white" stroke-width="1.5" stroke-miterlimit="10" stroke-linecap="round" stroke-linejoin="round"/>
<path d="M12.4248 3.9585C12.9831 5.95016 14.5415 7.5085 16.5415 8.07516" stroke="white" stroke-width="1.5" stroke-miterlimit="10" stroke-linecap="round" stroke-linejoin="round"/>
</svg>
