<svg width="20" height="20" viewBox="0 0 20 20" fill="none" xmlns="http://www.w3.org/2000/svg">
<g clip-path="url(#clip0_1_2864)">
<path d="M10.0013 18.3332C5.3988 18.3332 1.66797 14.6023 1.66797 9.99984C1.66797 5.39734 5.3988 1.6665 10.0013 1.6665C14.6038 1.6665 18.3346 5.39734 18.3346 9.99984C18.3346 14.6023 14.6038 18.3332 10.0013 18.3332ZM10.0013 16.6665C11.7694 16.6665 13.4651 15.9641 14.7153 14.7139C15.9656 13.4636 16.668 11.7679 16.668 9.99984C16.668 8.23173 15.9656 6.53603 14.7153 5.28579C13.4651 4.03555 11.7694 3.33317 10.0013 3.33317C8.23319 3.33317 6.5375 4.03555 5.28726 5.28579C4.03701 6.53603 3.33464 8.23173 3.33464 9.99984C3.33464 11.7679 4.03701 13.4636 5.28726 14.7139C6.5375 15.9641 8.23319 16.6665 10.0013 16.6665ZM9.16797 12.4998H10.8346V14.1665H9.16797V12.4998ZM10.8346 11.129V11.6665H9.16797V10.4165C9.16797 10.1955 9.25577 9.98353 9.41205 9.82725C9.56833 9.67097 9.78029 9.58317 10.0013 9.58317C10.238 9.58316 10.4699 9.51592 10.6699 9.38928C10.8699 9.26264 11.0299 9.08181 11.1311 8.86782C11.2324 8.65384 11.2708 8.4155 11.2419 8.18054C11.213 7.94558 11.1179 7.72366 10.9678 7.5406C10.8177 7.35754 10.6187 7.22086 10.394 7.14648C10.1692 7.07209 9.928 7.06306 9.69832 7.12042C9.46865 7.17779 9.25998 7.2992 9.09661 7.47052C8.93323 7.64184 8.82187 7.85603 8.77547 8.08817L7.14047 7.76067C7.24183 7.25407 7.47589 6.78348 7.81874 6.39699C8.16158 6.01051 8.6009 5.72199 9.09179 5.56094C9.58269 5.39989 10.1075 5.37208 10.6127 5.48035C11.1179 5.58862 11.5852 5.8291 11.967 6.17719C12.3487 6.52528 12.6312 6.96851 12.7856 7.46156C12.9399 7.9546 12.9605 8.47979 12.8454 8.98343C12.7302 9.48706 12.4833 9.95109 12.1301 10.3281C11.7768 10.705 11.3297 10.9814 10.8346 11.129Z" fill="#A4A8AB"/>
</g>
<defs>
<clipPath id="clip0_1_2864">
<rect width="20" height="20" fill="white"/>
</clipPath>
</defs>
</svg>
