<svg width="134" height="169" viewBox="0 0 134 169" fill="none" xmlns="http://www.w3.org/2000/svg">
<mask id="mask0_1_3203" style="mask-type:alpha" maskUnits="userSpaceOnUse" x="0" y="0" width="134" height="169">
<rect x="0.5" width="133.179" height="169" rx="30" fill="#ED713C"/>
</mask>
<g mask="url(#mask0_1_3203)">
<circle opacity="0.1" cx="-25.2178" cy="177.267" r="85.788" fill="black" stroke="black" stroke-width="36"/>
<path d="M42.026 132.587V132.623V132.587ZM16 133.417V138.45H25.272V133.417H16ZM28.781 145.934V144.874H28.141C27.3801 144.873 26.6505 144.571 26.1125 144.033C25.5744 143.494 25.2718 142.765 25.271 142.004V139.245H16V142.751C16 143.178 16.084 143.6 16.2473 143.994C16.4106 144.389 16.6499 144.747 16.9516 145.048C17.2533 145.35 17.6115 145.589 18.0057 145.753C18.3998 145.916 18.8223 146 19.249 146L28.781 145.934ZM32.821 133.417V138.45H42.093V133.417H32.821ZM32.026 139.245V130C32.0257 129.449 31.8068 128.921 31.4174 128.532C31.0279 128.142 30.4998 127.923 29.949 127.923H28.715V126H18.851C18.095 126.001 17.3703 126.302 16.8359 126.837C16.3014 127.371 16.0008 128.096 16 128.852V132.623H26.066V142C26.0665 142.55 26.2854 143.078 26.6746 143.467C27.0638 143.857 27.5916 144.075 28.142 144.076H29.576V145.864H39.241C39.9972 145.863 40.7221 145.562 41.2568 145.028C41.7915 144.493 42.0922 143.768 42.093 143.012V139.241L32.026 139.245ZM16 133.417V138.45H25.272V133.417H16ZM16 133.417V138.45H25.272V133.417H16Z" fill="#E0E0E0"/>
<path d="M42.027 129.249V132.622H32.822V129.997C32.8207 129.236 32.5177 128.506 31.9793 127.968C31.441 127.43 30.7112 127.127 29.95 127.126H29.51V126.066H38.844C39.688 126.067 40.4971 126.402 41.0938 126.999C41.6906 127.596 42.0262 128.405 42.027 129.249Z" fill="#E0E0E0"/>
<path opacity="0.1" d="M254.369 -24.3396C254.369 38.2928 212.927 83.0327 168.581 83.0327C124.235 83.0327 82.793 38.2928 82.793 -24.3396C82.793 -86.972 124.235 -131.712 168.581 -131.712C212.927 -131.712 254.369 -86.972 254.369 -24.3396Z" fill="black" stroke="black" stroke-width="36"/>
</g>
</svg>
