<svg width="40" height="40" viewBox="0 0 40 40" fill="none" xmlns="http://www.w3.org/2000/svg">
<g clip-path="url(#clip0_1_3126)">
<path d="M13.3333 8.3335H26.6667C29.7609 8.3335 32.7283 9.56266 34.9163 11.7506C37.1042 13.9385 38.3333 16.906 38.3333 20.0002C38.3333 23.0944 37.1042 26.0618 34.9163 28.2497C32.7283 30.4377 29.7609 31.6668 26.6667 31.6668H13.3333C10.2391 31.6668 7.27168 30.4377 5.08376 28.2497C2.89583 26.0618 1.66667 23.0944 1.66667 20.0002C1.66667 16.906 2.89583 13.9385 5.08376 11.7506C7.27168 9.56266 10.2391 8.3335 13.3333 8.3335ZM26.6667 25.0002C27.9928 25.0002 29.2645 24.4734 30.2022 23.5357C31.1399 22.598 31.6667 21.3262 31.6667 20.0002C31.6667 18.6741 31.1399 17.4023 30.2022 16.4646C29.2645 15.5269 27.9928 15.0002 26.6667 15.0002C25.3406 15.0002 24.0688 15.5269 23.1311 16.4646C22.1935 17.4023 21.6667 18.6741 21.6667 20.0002C21.6667 21.3262 22.1935 22.598 23.1311 23.5357C24.0688 24.4734 25.3406 25.0002 26.6667 25.0002Z" fill="#0CAF60"/>
</g>
<defs>
<clipPath id="clip0_1_3126">
<rect width="40" height="40" fill="white"/>
</clipPath>
</defs>
</svg>
