<svg width="40" height="40" viewBox="0 0 40 40" fill="none" xmlns="http://www.w3.org/2000/svg">
<g clip-path="url(#clip0_1_3111)">
<path d="M13.3333 11.6668C11.1232 11.6668 9.00359 12.5448 7.44078 14.1076C5.87798 15.6704 5.00001 17.79 5.00001 20.0002C5.00001 22.2103 5.87798 24.3299 7.44078 25.8927C9.00359 27.4555 11.1232 28.3335 13.3333 28.3335H26.6667C28.8768 28.3335 30.9964 27.4555 32.5592 25.8927C34.122 24.3299 35 22.2103 35 20.0002C35 17.79 34.122 15.6704 32.5592 14.1076C30.9964 12.5448 28.8768 11.6668 26.6667 11.6668H13.3333ZM13.3333 8.3335H26.6667C29.7609 8.3335 32.7283 9.56266 34.9163 11.7506C37.1042 13.9385 38.3333 16.906 38.3333 20.0002C38.3333 23.0944 37.1042 26.0618 34.9163 28.2497C32.7283 30.4377 29.7609 31.6668 26.6667 31.6668H13.3333C10.2391 31.6668 7.27168 30.4377 5.08376 28.2497C2.89583 26.0618 1.66667 23.0944 1.66667 20.0002C1.66667 16.906 2.89583 13.9385 5.08376 11.7506C7.27168 9.56266 10.2391 8.3335 13.3333 8.3335ZM13.3333 25.0002C12.0073 25.0002 10.7355 24.4734 9.7978 23.5357C8.86012 22.598 8.33334 21.3262 8.33334 20.0002C8.33334 18.6741 8.86012 17.4023 9.7978 16.4646C10.7355 15.5269 12.0073 15.0002 13.3333 15.0002C14.6594 15.0002 15.9312 15.5269 16.8689 16.4646C17.8066 17.4023 18.3333 18.6741 18.3333 20.0002C18.3333 21.3262 17.8066 22.598 16.8689 23.5357C15.9312 24.4734 14.6594 25.0002 13.3333 25.0002Z" fill="#A4A8AB"/>
</g>
<defs>
<clipPath id="clip0_1_3111">
<rect width="40" height="40" fill="white"/>
</clipPath>
</defs>
</svg>
