<svg width="24" height="25" viewBox="0 0 24 25" fill="none" xmlns="http://www.w3.org/2000/svg">
<g clip-path="url(#clip0_1_3644)">
<path d="M24 12.5C24 19.1274 18.6274 24.5 12 24.5C5.37262 24.5 0 19.1274 0 12.5C0 12.5028 12 0.501359 12 0.5C18.6274 0.5 24 5.87262 24 12.5Z" fill="#0052B4"/>
<path d="M11.9678 12.4999H11.9999C11.9999 12.489 11.9999 12.4786 11.9999 12.4678C11.9892 12.4785 11.9785 12.4892 11.9678 12.4999Z" fill="white"/>
<path d="M12 6.7611C12 4.64962 12 3.26601 12 0.500244H11.998C5.3715 0.501322 0 5.87343 0 12.5002H6.26086V8.97463L9.78642 12.5002H11.9679C11.9787 12.4895 11.9894 12.4788 12 12.4681C12 11.6596 12 10.9383 12 10.2867L8.47444 6.7611H12Z" fill="white"/>
<path d="M6.071 2.06519C4.19417 3.13389 2.63389 4.69417 1.56519 6.571V12.5H4.69564V5.19569V5.19564H12C12 4.20831 12 3.26772 12 2.06519H6.071Z" fill="#D80027"/>
<path d="M12.0001 11.0244L7.73666 6.761H6.26099C6.26099 6.76096 6.26099 6.761 6.26099 6.761L12 12.5H12.0001C12.0001 12.5 12.0001 11.4826 12.0001 11.0244Z" fill="#D80027"/>
<path d="M7.23729 14.5872L7.89588 15.9643L9.38309 15.6205L8.71709 16.9941L9.91305 17.9425L8.42398 18.2781L8.42815 19.8046L7.23729 18.8496L6.04648 19.8046L6.05065 18.2781L4.56152 17.9425L5.75754 16.9941L5.09145 15.6205L6.57874 15.9643L7.23729 14.5872Z" fill="white"/>
<path d="M17.9665 17.1958L18.2958 17.8843L19.0394 17.7125L18.7064 18.3992L19.3044 18.8734L18.5599 19.0413L18.5619 19.8045L17.9665 19.327L17.3711 19.8045L17.3732 19.0413L16.6287 18.8734L17.2266 18.3992L16.8936 17.7125L17.6372 17.8843L17.9665 17.1958Z" fill="white"/>
<path d="M14.9031 9.89136L15.2323 10.58L15.976 10.408L15.643 11.0948L16.241 11.569L15.4964 11.7369L15.4985 12.5001L14.9031 12.0226L14.3077 12.5001L14.3097 11.7369L13.5652 11.569L14.1632 11.0948L13.8302 10.408L14.5738 10.58L14.9031 9.89136Z" fill="white"/>
<path d="M17.9665 5.71753L18.2958 6.40612L19.0394 6.23423L18.7064 6.921L19.3044 7.39518L18.5599 7.56304L18.5619 8.32626L17.9665 7.84875L17.3711 8.32626L17.3732 7.56304L16.6287 7.39518L17.2266 6.921L16.8936 6.23423L17.6372 6.40612L17.9665 5.71753Z" fill="white"/>
<path d="M20.6424 8.8479L20.9716 9.5365L21.7152 9.36456L21.3822 10.0513L21.9802 10.5256L21.2356 10.6935L21.2377 11.4566L20.6424 10.9792L20.0469 11.4566L20.049 10.6935L19.3044 10.5256L19.9024 10.0513L19.5694 9.36456L20.313 9.5365L20.6424 8.8479Z" fill="white"/>
<path d="M18.729 12.5L18.988 13.2972H19.8262L19.1481 13.7899L19.4072 14.587L18.729 14.0943L18.0509 14.587L18.3099 13.7899L17.6318 13.2972H18.47L18.729 12.5Z" fill="white"/>
</g>
<defs>
<clipPath id="clip0_1_3644">
<rect width="24" height="24" fill="white" transform="translate(0 0.5)"/>
</clipPath>
</defs>
</svg>
