<svg width="35" height="35" viewBox="0 0 35 35" fill="none" xmlns="http://www.w3.org/2000/svg">
<path d="M17.5 16.0861L21.0355 12.5506C21.4261 12.1601 22.0592 12.1601 22.4497 12.5506C22.8403 12.9411 22.8403 13.5743 22.4497 13.9648L18.9142 17.5003L22.4497 21.0359C22.8403 21.4264 22.8403 22.0595 22.4497 22.4501C22.0592 22.8406 21.4261 22.8406 21.0355 22.4501L17.5 18.9145L13.9645 22.4501C13.5739 22.8406 12.9408 22.8406 12.5503 22.4501C12.1597 22.0595 12.1597 21.4264 12.5503 21.0359L16.0858 17.5003L12.5503 13.9648C12.1597 13.5743 12.1597 12.9411 12.5503 12.5506C12.9408 12.1601 13.5739 12.1601 13.9645 12.5506L17.5 16.0861Z" fill="white"/>
</svg>
