<svg width="24" height="25" viewBox="0 0 24 25" fill="none" xmlns="http://www.w3.org/2000/svg">
<path d="M12 24.5C18.6274 24.5 24 19.1274 24 12.5C24 5.87258 18.6274 0.5 12 0.5C5.37258 0.5 0 5.87258 0 12.5C0 19.1274 5.37258 24.5 12 24.5Z" fill="#F7931A"/>
<path d="M17.3918 11.015C17.6273 9.443 16.4295 8.59775 14.793 8.03375L15.324 5.90375L14.028 5.58125L13.5105 7.655C13.17 7.5695 12.8205 7.49 12.4718 7.4105L12.993 5.32325L11.697 5L11.166 7.12925C10.884 7.06475 10.6065 7.00175 10.338 6.93425L10.3395 6.9275L8.55155 6.48125L8.20655 7.86575C8.20655 7.86575 9.1688 8.08625 9.14855 8.09975C9.67355 8.231 9.76805 8.57825 9.7523 8.85425L9.1478 11.2805C9.1838 11.2895 9.2303 11.303 9.2828 11.3232L9.14555 11.2895L8.29805 14.6885C8.23355 14.8475 8.0708 15.0867 7.7033 14.996C7.7168 15.0147 6.7613 14.7612 6.7613 14.7612L6.1178 16.2448L7.8053 16.6655C8.1188 16.7443 8.4263 16.8267 8.72855 16.904L8.1923 19.058L9.48755 19.3805L10.0185 17.2505C10.3725 17.3457 10.716 17.4342 11.052 17.5182L10.5225 19.6392L11.8185 19.9618L12.3548 17.8123C14.5658 18.2308 16.2278 18.062 16.9275 16.0625C17.4915 14.453 16.8998 13.5238 15.7365 12.9185C16.584 12.7235 17.2215 12.1663 17.3918 11.015ZM14.4293 15.1685C14.0295 16.7788 11.3183 15.908 10.4393 15.6898L11.1518 12.836C12.0308 13.0557 14.8485 13.49 14.4293 15.1685ZM14.8305 10.9918C14.4653 12.4565 12.2093 11.7118 11.478 11.5295L12.123 8.942C12.8543 9.12425 15.2115 9.464 14.8305 10.9918Z" fill="white"/>
</svg>
