<svg width="25" height="25" viewBox="0 0 25 25" fill="none" xmlns="http://www.w3.org/2000/svg">
<g clip-path="url(#clip0_1_3689)">
<path d="M12.5 24.5C19.4036 24.5 25 19.1274 25 12.5C25 5.87258 19.4036 0.5 12.5 0.5C5.59644 0.5 0 5.87258 0 12.5C0 19.1274 5.59644 24.5 12.5 24.5Z" fill="white"/>
<path d="M11.413 12.5C11.413 12.5 3.66846 20.987 3.66113 20.9853C5.92314 23.1568 9.04819 24.5 12.5 24.5C19.4035 24.5 25 19.1274 25 12.5H11.413Z" fill="#D80027"/>
<path d="M3.66116 4.01465C-1.22039 8.70093 -1.22039 16.299 3.66116 20.9853C5.67839 19.0488 7.61848 17.1863 12.5 12.5L3.66116 4.01465Z" fill="#0052B4"/>
</g>
<defs>
<clipPath id="clip0_1_3689">
<rect width="25" height="24" fill="white" transform="translate(0 0.5)"/>
</clipPath>
</defs>
</svg>
