<svg width="24" height="25" viewBox="0 0 24 25" fill="none" xmlns="http://www.w3.org/2000/svg">
<g clip-path="url(#clip0_1_3714)">
<path d="M12 24.5C18.6274 24.5 24 19.1274 24 12.5C24 5.87258 18.6274 0.5 12 0.5C5.37258 0.5 0 5.87258 0 12.5C0 19.1274 5.37258 24.5 12 24.5Z" fill="white"/>
<path d="M9.3914 10.9348H23.8985C23.1315 5.04697 18.0969 0.5 12 0.5C11.104 0.5 10.2314 0.599047 9.39136 0.785234V10.9348H9.3914Z" fill="#D80027"/>
<path d="M6.26084 10.9347V1.95898C2.96586 3.75682 0.607017 7.05452 0.101562 10.9347H6.26084Z" fill="#D80027"/>
<path d="M6.2608 14.0654H0.101562C0.607017 17.9455 2.96586 21.2433 6.26084 23.0411L6.2608 14.0654Z" fill="#D80027"/>
<path d="M9.39136 14.0654V24.2149C10.2314 24.4011 11.104 24.5002 12 24.5002C18.0969 24.5002 23.1315 19.9532 23.8985 14.0654H9.39136Z" fill="#D80027"/>
</g>
<defs>
<clipPath id="clip0_1_3714">
<rect width="24" height="24" fill="white" transform="translate(0 0.5)"/>
</clipPath>
</defs>
</svg>
