<svg width="24" height="24" viewBox="0 0 24 24" fill="none" xmlns="http://www.w3.org/2000/svg">
<path d="M13 21.9502L13 19.9382C15.0173 19.6816 16.8611 18.6664 18.1568 17.099C19.4525 15.5317 20.1027 13.5298 19.9754 11.5002C19.848 9.47065 18.9527 7.56573 17.4713 6.17262C15.9898 4.77952 14.0336 4.00276 12 4.00024C10.0514 4.00028 8.16977 4.71143 6.70825 6.00025C5.24674 7.28906 4.30579 9.06694 4.062 11.0002L2.049 11.0002C2.551 5.94724 6.815 2.00024 12 2.00024C17.523 2.00024 22 6.47724 22 12.0002C22 17.1852 18.053 21.4492 13 21.9502ZM4 18.5862L12 10.5862L13.414 12.0002L5.414 20.0002L10 20.0002L10 22.0002L2 22.0002L2 14.0002L4 14.0002L4 18.5862Z" fill="white"/>
</svg>
