<svg width="15" height="15" viewBox="0 0 15 15" fill="none" xmlns="http://www.w3.org/2000/svg">
<path d="M1.10722 8.63947L10.7612 8.63947L6.99123 12.3795C6.77927 12.597 6.66064 12.8887 6.66064 13.1924C6.66064 13.4962 6.77927 13.7879 6.99123 14.0055C7.20591 14.2175 7.49549 14.3364 7.79723 14.3364C8.09896 14.3364 8.38855 14.2175 8.60323 14.0055L14.3352 8.30548C14.5403 8.08739 14.6544 7.79934 14.6544 7.5C14.6544 7.20067 14.5403 6.91255 14.3352 6.69446L8.60323 0.994447C8.38855 0.782417 8.09896 0.663576 7.79723 0.663576C7.49549 0.663576 7.20591 0.782417 6.99123 0.994447C6.78409 1.21018 6.66498 1.49553 6.65723 1.7945C6.66017 2.09624 6.77988 2.38509 6.99123 2.60047L10.7612 6.35547L1.10722 6.35547C0.810591 6.36425 0.52905 6.48825 0.322336 6.70117C0.115621 6.9141 1.24791e-06 7.19921 1.19602e-06 7.49597C1.14414e-06 7.79274 0.115621 8.07784 0.322335 8.29077C0.52905 8.5037 0.810591 8.62769 1.10722 8.63647L1.10722 8.63947Z" fill="white"/>
</svg>
