<svg width="24" height="25" viewBox="0 0 24 25" fill="none" xmlns="http://www.w3.org/2000/svg">
<g clip-path="url(#clip0_1_3781)">
<path d="M0.746391 8.3262C0.264047 9.62623 0 11.0323 0 12.5001C0 13.968 0.264047 15.3741 0.746391 16.674L12 17.7175L23.2536 16.674C23.736 15.3741 24 13.968 24 12.5001C24 11.0323 23.736 9.62623 23.2536 8.3262L12 7.28271L0.746391 8.3262Z" fill="white"/>
<path d="M12.0001 0.5C6.84061 0.5 2.44205 3.7565 0.746582 8.32611H23.2539C21.5582 3.7565 17.1598 0.5 12.0001 0.5Z" fill="#D80027"/>
<path d="M12.0001 24.4999C17.1598 24.4999 21.5582 21.2434 23.2538 16.6738H0.746582C2.44205 21.2434 6.84061 24.4999 12.0001 24.4999Z" fill="#6DA544"/>
</g>
<defs>
<clipPath id="clip0_1_3781">
<rect width="24" height="24" fill="white" transform="translate(0 0.5)"/>
</clipPath>
</defs>
</svg>
