<svg width="43" height="26" viewBox="0 0 43 26" fill="none" xmlns="http://www.w3.org/2000/svg">
<path d="M16.0116 3.10156H27.1869V23.1818H16.0116V3.10156Z" fill="#FF8AA2"/>
<path d="M16.723 13.1415C16.723 9.06168 18.6387 5.4429 21.5832 3.10133C19.4193 1.39844 16.6876 0.369629 13.7075 0.369629C6.64722 0.369629 0.935425 6.08142 0.935425 13.1415C0.935425 20.2015 6.64722 25.9134 13.7073 25.9134C16.6874 25.9134 19.4191 24.8846 21.5832 23.1816C18.6387 20.8756 16.723 17.2214 16.723 13.1415Z" fill="#FD6887"/>
<path d="M42.2668 13.1415C42.2668 20.2015 36.555 25.9134 29.4949 25.9134C26.5148 25.9134 23.7831 24.8846 21.619 23.1816C24.5991 20.8402 26.4794 17.2214 26.4794 13.1415C26.4794 9.06168 24.5636 5.4429 21.619 3.10133C23.783 1.39844 26.5148 0.369629 29.4949 0.369629C36.555 0.369629 42.267 6.11698 42.267 13.1415H42.2668Z" fill="#FD6887"/>
</svg>
