<svg width="42" height="27" viewBox="0 0 42 27" fill="none" xmlns="http://www.w3.org/2000/svg">
<path d="M15.5117 3.69336H26.6871V23.7736H15.5117V3.69336Z" fill="#FF5F00"/>
<path d="M16.2211 13.7338C16.2211 9.65396 18.1369 6.03518 21.0814 3.69361C18.9174 1.99073 16.1858 0.961914 13.2057 0.961914C6.14539 0.961914 0.433594 6.67371 0.433594 13.7338C0.433594 20.7938 6.14539 26.5057 13.2055 26.5057C16.1856 26.5057 18.9173 25.4769 21.0814 23.7739C18.1369 21.4678 16.2211 17.8137 16.2211 13.7338Z" fill="#EB001B"/>
<path d="M41.7651 13.7338C41.7651 20.7938 36.0533 26.5057 28.9932 26.5057C26.0131 26.5057 23.2814 25.4769 21.1173 23.7739C24.0974 21.4324 25.9777 17.8137 25.9777 13.7338C25.9777 9.65396 24.0618 6.03518 21.1173 3.69361C23.2813 1.99073 26.0131 0.961914 28.9932 0.961914C36.0533 0.961914 41.7653 6.70926 41.7653 13.7338H41.7651Z" fill="#F79E1B"/>
</svg>
