<svg width="15" height="15" viewBox="0 0 15 15" fill="none" xmlns="http://www.w3.org/2000/svg">
<g id="Frame" clip-path="url(#clip0_1_6550)">
<path id="Path 66476" d="M1.2791 8.63995L10.9331 8.63996L7.1631 12.3799C6.95114 12.5975 6.83252 12.8892 6.83252 13.1929C6.83252 13.4967 6.95114 13.7884 7.1631 14.006C7.37778 14.218 7.66736 14.3369 7.9691 14.3369C8.27084 14.3369 8.56042 14.218 8.7751 14.006L14.5071 8.30597C14.7121 8.08788 14.8263 7.79983 14.8263 7.50049C14.8263 7.20115 14.7121 6.91304 14.5071 6.69495L8.7751 0.994936C8.56042 0.782905 8.27084 0.664064 7.9691 0.664064C7.66737 0.664064 7.37778 0.782905 7.1631 0.994935C6.95597 1.21066 6.83686 1.49601 6.8291 1.79498C6.83204 2.09673 6.95175 2.38557 7.1631 2.60095L10.9331 6.35596L1.2791 6.35596C0.982466 6.36474 0.700925 6.48873 0.494211 6.70166C0.287496 6.91459 0.171876 7.1997 0.171876 7.49646C0.171876 7.79322 0.287496 8.07833 0.49421 8.29126C0.700925 8.50419 0.982466 8.62818 1.2791 8.63696L1.2791 8.63995Z" fill="white"/>
</g>
<defs>
<clipPath id="clip0_1_6550">
<rect width="14.686" height="13.674" fill="white" transform="matrix(1 1.74846e-07 1.74846e-07 -1 0.138672 14.3369)"/>
</clipPath>
</defs>
</svg>
