<svg width="20" height="20" viewBox="0 0 20 20" fill="none" xmlns="http://www.w3.org/2000/svg">
<g id="Send-Icon" clip-path="url(#clip0_1_7580)">
<path id="Vector" d="M3.33317 15.8333L16.6665 15.8333L16.6665 10.8333C16.6665 10.3731 17.0396 10 17.4998 10C17.9601 10 18.3332 10.3731 18.3332 10.8333L18.3332 16.6667C18.3332 16.8877 18.2454 17.0996 18.0891 17.2559C17.9328 17.4122 17.7208 17.5 17.4998 17.5L2.49984 17.5C2.27882 17.5 2.06686 17.4122 1.91058 17.2559C1.7543 17.0996 1.6665 16.8877 1.6665 16.6667L1.6665 10.8333C1.6665 10.3731 2.0396 10 2.49984 10C2.96007 10 3.33317 10.3731 3.33317 10.8333L3.33317 15.8333Z" fill="#FF3E46"/>
<path id="Vector_2" d="M9.35716 5.09204L6.38703 8.22039C6.12712 8.49415 5.69084 8.49415 5.43092 8.22039C5.1894 7.966 5.1894 7.56703 5.43092 7.31264L9.20826 3.33408C9.63872 2.88069 10.3613 2.88069 10.7917 3.33408L14.5691 7.31264C14.8106 7.56703 14.8106 7.966 14.5691 8.22039C14.3092 8.49415 13.8729 8.49415 13.613 8.22039L10.6428 5.09204L10.6428 12.6907C10.6428 13.0457 10.355 13.3335 10 13.3335C9.64497 13.3335 9.35716 13.0457 9.35716 12.6907L9.35716 5.09204Z" fill="#FF3E46"/>
</g>
<defs>
<clipPath id="clip0_1_7580">
<rect width="20" height="20" fill="white"/>
</clipPath>
</defs>
</svg>
