<svg width="49" height="10" viewBox="0 0 49 10" fill="none" xmlns="http://www.w3.org/2000/svg">
<path d="M0.744 4.572C0.744 7.092 1.368 9 3.768 9C6.156 9 6.78 7.092 6.78 4.572C6.78 2.088 6.156 0.192 3.768 0.192C1.368 0.192 0.744 2.088 0.744 4.572ZM5.7 4.572C5.7 6.444 5.472 8.004 3.768 8.004C2.052 8.004 1.824 6.444 1.824 4.572C1.824 2.772 2.052 1.188 3.768 1.188C5.472 1.188 5.7 2.772 5.7 4.572ZM8.25516 2.508H9.32316C9.43116 1.668 10.0432 1.092 11.0632 1.092C12.1072 1.092 12.6592 1.668 12.6592 2.496C12.6592 3.504 11.8792 3.948 10.4272 3.96H10.1392V4.872H10.4152C11.9752 4.872 12.8272 5.34 12.8272 6.564C12.8272 7.452 12.2752 8.136 11.1112 8.136C9.95916 8.136 9.28716 7.428 9.17916 6.504H8.12316C8.25516 8.184 9.47916 9.06 11.1232 9.06C12.9352 9.06 13.8712 8.004 13.8712 6.66C13.8712 5.412 13.1872 4.668 12.1792 4.428V4.368C13.0912 4.164 13.7152 3.384 13.7152 2.388C13.7152 1.14 12.7912 0.155999 11.0992 0.155999C9.49116 0.155999 8.36316 1.02 8.25516 2.508ZM16.5936 8.328C16.5936 7.908 16.2696 7.584 15.8736 7.584C15.4536 7.584 15.1296 7.908 15.1296 8.328C15.1296 8.748 15.4536 9.072 15.8736 9.072C16.2696 9.072 16.5936 8.748 16.5936 8.328ZM16.5936 3.192C16.5936 2.772 16.2696 2.448 15.8736 2.448C15.4536 2.448 15.1296 2.772 15.1296 3.192C15.1296 3.612 15.4536 3.936 15.8736 3.936C16.2696 3.936 16.5936 3.612 16.5936 3.192ZM22.0763 9H23.1562V7.068H24.3563V6.12H23.1562V0.408H21.8483L17.6363 6.24V7.068H22.0763V9ZM18.8963 6.12L22.1243 1.548V6.12H18.8963ZM25.8431 6.672C25.9631 7.944 26.8031 9.012 28.5311 9.012C30.8111 9.012 31.4711 7.392 31.4711 4.5C31.4711 1.812 30.7871 0.155999 28.4351 0.155999C26.5631 0.155999 25.5791 1.356 25.5791 3.012C25.5791 4.848 26.7671 5.844 28.3631 5.844C29.2991 5.844 30.1631 5.424 30.5111 4.692C30.5471 7.236 29.8631 8.1 28.5911 8.1C27.5831 8.1 27.0071 7.572 26.8511 6.672H25.8431ZM28.5431 4.92C27.2471 4.92 26.6231 4.104 26.6231 2.988C26.6231 1.836 27.3311 1.068 28.4591 1.068C29.7071 1.068 30.3791 1.896 30.3791 3.072C30.3791 4.236 29.5871 4.92 28.5431 4.92ZM34.2777 4.608V1.536H35.8857C37.1337 1.536 37.6617 2.112 37.6617 3.084C37.6617 4.02 37.1337 4.608 35.8857 4.608H34.2777ZM38.7777 3.084C38.7777 1.716 37.8537 0.636 35.8857 0.636H33.1857V9H34.2777V5.508H35.8857C37.9617 5.508 38.7777 4.356 38.7777 3.084ZM40.1349 9H41.2269V2.796L43.9989 9H44.7669L47.5269 2.808V9H48.6189V0.696H47.4549L44.3829 7.56L41.3109 0.696H40.1349V9Z" fill="#A4A8AB"/>
</svg>
