<svg width="24" height="24" viewBox="0 0 24 24" fill="none" xmlns="http://www.w3.org/2000/svg">
<g clip-path="url(#clip0_1_3537)">
<path d="M11 2.05024V4.06224C8.98271 4.31893 7.13885 5.33411 5.84319 6.90146C4.54752 8.46881 3.89728 10.4707 4.02462 12.5003C4.15196 14.5298 5.04733 16.4348 6.52874 17.8279C8.01016 19.221 9.96645 19.9977 12 20.0002C13.9486 20.0002 15.8302 19.2891 17.2917 18.0002C18.7533 16.7114 19.6942 14.9335 19.938 13.0002H21.951C21.449 18.0532 17.185 22.0002 12 22.0002C6.477 22.0002 2 17.5232 2 12.0002C2 6.81524 5.947 2.55124 11 2.05024ZM20 5.41424L12 13.4142L10.586 12.0002L18.586 4.00024H14V2.00024H22V10.0002H20V5.41424Z" fill="white"/>
</g>
<defs>
<clipPath id="clip0_1_3537">
<rect width="24" height="24" fill="white" transform="translate(0 0.000244141)"/>
</clipPath>
</defs>
</svg>
